Coordinates
version=1
nRows=13
nColumns=36
inDegrees=yes

Units are S.I. units (second, meters, Newtons, ...)
If the header above contains a line with 'inDegrees', this indicates whether rotational values are in degrees (yes) or radians (no).

endheader
time	pelvis_tilt	pelvis_list	pelvis_rotation	pelvis_tx	pelvis_ty	pelvis_tz	hip_flexion_r	hip_adduction_r	hip_rotation_r	knee_angle_r	knee_angle_r_beta	ankle_angle_r	subtalar_angle_r	mtp_angle_r	hip_flexion_l	hip_adduction_l	hip_rotation_l	knee_angle_l	knee_angle_l_beta	ankle_angle_l	subtalar_angle_l	mtp_angle_l	lumbar_extension	lumbar_bending	lumbar_rotation	arm_flex_r	arm_add_r	arm_rot_r	elbow_flex_r	pro_sup_r	arm_flex_l	arm_add_l	arm_rot_l	elbow_flex_l	pro_sup_l
      4.38333330	     -9.18373212	      1.08843456	     -4.51277797	      0.53200961	      0.78679659	      0.04260654	     62.27350926	     -3.68870052	     -1.31133122	     18.22881525	      0.31815284	     -7.38694148	     17.49078865	     -7.49999987	     44.55325776	      5.19193114	     -6.04104892	     74.16565503	      1.29443487	      1.66706966	    -10.58555683	     -7.49999987	    -17.17349210	     -4.67373507	      2.94819833	     34.97184725	      0.96854517	     61.12013847	    129.33786403	    102.48651993	     38.21507500	     -7.41509147	     68.39554967	    128.84459910	    105.50662678
      4.40000000	     -9.02399924	      0.86300160	     -4.68286239	      0.53188405	      0.78743122	      0.04288074	     61.64548286	     -3.33896049	     -1.67101512	     17.67859168	      0.30854963	     -7.06715104	     17.90974086	     -7.49999987	     44.18032310	      4.95519217	     -5.92763757	     74.18947123	      1.29485054	      2.20002718	     -9.45398076	     -7.49999987	    -16.96472084	     -4.42468828	      3.27418440	     34.72712550	      1.11898008	     61.77262492	    129.74087455	    102.84723763	     37.75035203	     -7.38794387	     68.82691050	    129.45591308	    106.05873906
      4.41666670	     -8.65553773	      0.92663393	     -4.29917314	      0.53205547	      0.79371999	      0.04226634	     61.42600979	     -3.68090869	     -1.66757388	     18.15528612	      0.31686952	     -6.58762004	     17.48778232	     -7.49999987	     43.77364966	      5.32292740	     -5.37528530	     73.46418317	      1.28219188	      3.35896185	     -9.50272299	     -7.49999987	    -16.90881606	     -4.42236640	      3.03552959	     34.40234431	      1.13835864	     61.90271015	    129.78745742	    102.80972932	     37.24201215	     -7.32242006	     69.54234907	    129.43595703	    105.99157335
      4.43333330	     -8.09516904	      1.33343722	     -3.68112901	      0.52631564	      0.79852965	      0.03845598	     61.39549359	     -4.40939358	     -1.17560308	     19.14012783	      0.33405825	     -6.29812682	     17.30515599	     -7.49999987	     43.39648608	      6.20952027	     -5.03624505	     72.70602935	      1.26895960	      3.72517110	     -9.82757428	     -7.49999987	    -17.77375372	     -4.46982186	      2.47415201	     35.15808858	      1.34653466	     62.57460499	    130.17638261	    103.14282210	     38.02628516	     -7.35748542	     71.72450341	    130.15556838	    106.22818301
      4.45000000	     -7.76028502	      0.92227106	     -3.76076085	      0.53389057	      0.80069636	      0.03552530	     60.85854195	     -4.27775086	     -1.09123930	     19.15666855	      0.33434694	     -6.06874026	     16.88522787	     -7.49999987	     43.01515017	      6.01717863	     -4.71386205	     72.26648308	      1.26128807	      5.40531459	     -9.70257549	     -7.49999987	    -17.47602239	     -3.68684397	      2.73015581	     35.12504591	      0.99298978	     62.32929105	    130.34414095	    103.41772793	     37.86412253	     -6.17146615	     71.69607183	    129.79128786	    106.40019405
      4.46666670	     -7.34222930	      0.72325254	     -3.62048637	      0.53393240	      0.80675904	      0.03570711	     60.63657347	     -4.33938559	     -0.82481699	     19.69189834	      0.34368846	     -5.81131552	     15.98353005	     -7.49999987	     42.25241001	      6.21223318	     -4.33598366	     71.49781586	      1.24787229	      6.30950232	    -10.13421998	     -7.49999987	    -17.38403031	     -3.09324165	      2.40752505	     34.41503546	      0.70691261	     62.60739364	    130.20822500	    103.45307981	     37.51514550	     -5.82667747	     71.86230562	    129.66303541	    106.37794781
      4.48333330	     -6.80153378	      0.60242488	     -2.97619301	      0.52755277	      0.81177647	      0.03669969	     60.77327048	     -4.62177874	     -0.26354142	     20.91943547	      0.36511303	     -5.51531109	     14.76175309	     -7.49999987	     41.09402908	      6.73893411	     -3.70797953	     70.48744469	      1.23023799	      7.67000289	    -11.68907577	     -7.49999987	    -17.95707602	     -2.68104731	      1.83272216	     34.50580910	      0.55284412	     62.75379304	    130.08752145	    103.60725000	     38.03022978	     -5.55091837	     71.76173079	    129.85310589	    106.45015185
      4.50000000	     -6.51006172	      0.36234873	     -2.89650753	      0.53518635	      0.81334237	      0.03422994	     61.01986107	     -4.43489743	      0.57070102	     21.74609162	      0.37954090	     -5.61042313	     12.77569082	     -7.49999987	     40.00119558	      6.90143315	     -3.47394750	     70.01108876	      1.22192401	      9.75560064	    -12.55297367	     -7.49999987	    -17.85865594	     -2.09746013	      1.58030936	     34.33166562	      0.33437538	     62.13400573	    130.08997051	    103.57123887	     37.92925714	     -5.56466944	     71.56833926	    130.02392146	    106.43503646
      4.51666670	     -5.61360301	      0.07571910	     -2.61455224	      0.53432971	      0.82327907	      0.03914931	     60.15687294	     -4.16929507	      0.69722551	     21.34448915	      0.37253161	     -5.81417880	     12.11469587	     -7.49999987	     37.95673259	      6.90373793	     -2.83773979	     68.51660659	      1.19584038	     10.13793126	    -13.71131483	     -7.49999987	    -18.42757305	     -1.83179059	      1.22598044	     34.43111584	      0.55795333	     61.54352869	    129.74792698	    101.76863209	     38.05193207	     -6.30538984	     73.08241866	    130.72022295	    104.98489453
      4.53333330	     -4.97255604	     -0.18167695	     -2.39772561	      0.53417655	      0.82998042	      0.03876031	     59.60721026	     -3.91019600	      0.71317088	     21.39370251	      0.37339055	     -5.43085629	     11.67803790	     -7.49999987	     35.92182070	      6.92887416	     -2.13614591	     66.77999658	      1.16553081	     10.62332132	    -14.54031443	     -7.49999987	    -18.97058673	     -1.69194309	      0.93444061	     34.57737476	      0.83198405	     61.37549448	    130.21552381	    101.89600742	     38.52952886	     -6.55116239	     74.19012883	    131.08932941	    105.19675116
      4.55000000	     -4.53500836	     -0.40512044	     -2.51524977	      0.53475202	      0.83670012	      0.03260657	     59.43711530	     -3.59751282	      0.98990802	     21.84485263	      0.38126460	     -5.63454118	     10.48825843	     -7.49999987	     34.49538147	      6.94160326	     -2.01213225	     65.14455282	      1.13698694	     10.52707269	    -15.58931411	     -7.49999987	    -19.34522146	     -1.08269555	      1.12925245	     34.94296417	      0.61665325	     62.14455106	    131.26385902	    102.09060163	     38.85860369	     -6.13737418	     74.29946423	    130.78989017	    105.32104889
      4.56666670	     -4.24916105	     -0.94227845	     -2.69489805	      0.53275450	      0.84400978	      0.03896150	     59.17493342	     -2.91445643	      1.53797077	     22.41775467	      0.39126363	     -5.35386720	      9.33371351	     -7.49999987	     33.34105446	      6.29090572	     -1.71064142	     63.63858721	      1.11070288	     11.05349884	    -15.99923767	     -7.49999987	    -19.36024864	     -0.30027182	      1.80236133	     35.26638746	      0.16607913	     63.00009824	    131.77918295	    102.36139359	     39.06818358	     -5.67436181	     73.86261671	    130.67623194	    105.35205051
      4.58333330	     -4.31445121	     -1.60340092	     -3.04328085	      0.53207183	      0.85226617	      0.03866541	     59.38583294	     -2.22612661	      1.52737596	     23.41686544	      0.40870140	     -5.32008489	      8.71311481	     -7.49999987	     32.50943443	      5.41553496	     -1.60864675	     62.01546618	      1.08237407	     11.34924763	    -16.04707546	     -7.49999987	    -18.74254463	      0.48215178	      1.85458409	     34.99659569	      0.04134663	     63.15645859	    131.72037063	    102.24914153	     39.16650749	     -5.49653508	     73.55461902	    130.58419724	    105.15555118
